<svg id="Layer_1" data-name="Layer 1" xmlns="http://www.w3.org/2000/svg" viewBox="0 0 87.4 141.07"><defs><style>.cls-1{fill:#fff;}.cls-2{fill:#de836a;}.cls-3{fill:#f3d378;}.cls-4{fill:#7dc0af;}.cls-5{fill:#6fb3e4;}.cls-6{fill:#6856a4;}.cls-7{font-size:22px;fill:#2a1000;font-family:HelveticaNeue-Bold, Helvetica Neue;font-weight:700;letter-spacing:0.11em;}</style></defs><title>symbol_kork</title><polygon class="cls-1" points="71.15 98.82 71.15 91.73 68.27 91.73 68.27 89.86 76.16 89.86 76.16 91.73 73.24 91.73 73.24 98.82 71.15 98.82"/><path class="cls-1" d="M58.72,105.68c-1.32,0-2.17-1.06-2.17-2.69s.85-2.69,2.17-2.69a1.9,1.9,0,0,1,1.81,1.1l1.94-.66a3.77,3.77,0,0,0-3.75-2.38,4.65,4.65,0,0,0,0,9.28,3.77,3.77,0,0,0,3.71-2.26l-1.94-.69A1.9,1.9,0,0,1,58.72,105.68Z" transform="translate(-14.8 -8.65)"/><path class="cls-1" d="M79.56,79.14c-7.8,0-10.1-6.9-12.12-13-2.18-6.57-3.86-10.55-8.75-10.55s-6.56,4-8.74,10.55c-2,6.09-4.32,13-12.12,13s-10.1-6.9-12.12-13C23.53,59.59,21.85,55.6,17,55.6A1.78,1.78,0,0,1,17,52c7.8,0,10.1,6.9,12.12,13,2.18,6.57,3.86,10.55,8.74,10.55s6.56-4,8.74-10.55c2-6.09,4.32-13,12.12-13s10.1,6.9,12.12,13C73,71.6,74.67,75.58,79.56,75.58s6.56-4,8.75-10.55c2-6.09,4.32-13,12.12-13a1.78,1.78,0,0,1,0,3.56c-4.89,0-6.56,4-8.75,10.55C89.65,72.24,87.36,79.14,79.56,79.14Z" transform="translate(-14.8 -8.65)"/><path class="cls-1" d="M73,88.4A3.63,3.63,0,0,1,70.25,88c-2.16-1.42-2.55-5.44-3.17-9.41h0c-.9-5.74-2-12.89-8.39-12.89h0c-6.37,0-7.49,7.15-8.39,12.89-.62,4-1,8-3.17,9.41a3.63,3.63,0,0,1-2.79.38c-3.93-.8-4.4-6.25-4.66-14.48-.27-8.44-.57-18-9.4-18a1.78,1.78,0,0,0,0,3.56c5,0,5.56,5.5,5.85,14.56.24,7.7.52,16.42,7.52,17.85a9.3,9.3,0,0,0,1.77.18,6.39,6.39,0,0,0,3.76-1.14c3.14-2.21,3.9-7.07,4.64-11.77,1-6.15,1.77-9.89,4.88-9.89h0c3.1,0,3.91,3.74,4.87,9.89.74,4.7,1.5,9.56,4.64,11.77a7,7,0,0,0,5.55,1c7-1.43,7.26-10.15,7.5-17.85.29-9.06.82-14.56,5.85-14.56a1.78,1.78,0,0,0,0-3.56c-8.83,0-9.13,9.57-9.4,18-.26,8.22-.73,13.67-4.64,14.48Z" transform="translate(-14.8 -8.65)"/><path class="cls-1" d="M88.92,79.67a1.78,1.78,0,0,0-2.46.53L73,101,60.2,85.5l-.84-1a.86.86,0,0,0-1.33,0l-.6.72L44.38,101,30.93,80.2a1.78,1.78,0,1,0-3,1.93L42,103.87l-2.49,3-.38.53a5.7,5.7,0,0,0-1,3.25,5.64,5.64,0,0,0,1.66,4,5.73,5.73,0,0,0,4.09,1.7h0a5.73,5.73,0,0,0,4.78-8.83l-2.24-3.45L58.7,89.26,71,104.12l-2.24,3.45a5.73,5.73,0,0,0,4.79,8.82h0a5.73,5.73,0,0,0,4.09-1.7,5.72,5.72,0,0,0,.64-7.28l-2.87-3.55L89.45,82.13A1.78,1.78,0,0,0,88.92,79.67ZM43.84,112.84h0a2.2,2.2,0,0,1-1.55-.65,2.11,2.11,0,0,1-.62-1.51,2.16,2.16,0,0,1,.38-1.23l.25-.36L44,107l1.63,2.5a2.17,2.17,0,0,1-1.82,3.34Zm31.88-2.16a2.11,2.11,0,0,1-.62,1.51,2.2,2.2,0,0,1-1.55.65h0a2.17,2.17,0,0,1-1.83-3.33L73.36,107l1.73,2.1.25.36A2.15,2.15,0,0,1,75.72,110.69Z" transform="translate(-14.8 -8.65)"/><path class="cls-1" d="M59.92,35.66l14.85,21.1,17.09-27a1.78,1.78,0,1,1,3,1.9L76.18,61.17l-.57.91a.86.86,0,0,1-1.43,0l-.63-.89L58.69,40.11,43.51,61.69l-.3.43a.86.86,0,0,1-1.43,0l-.29-.46-19-29.94a1.78,1.78,0,1,1,3-1.9l17.09,27,14.79-21,.56-.8a.86.86,0,0,1,1.42,0Z" transform="translate(-14.8 -8.65)"/><path class="cls-1" d="M59.69,9.7,74.44,42.59l7.38-23.21a1.78,1.78,0,1,1,3.39,1.08L75.79,50.09l-.1.31a.86.86,0,0,1-1.6.11l-.15-.35-15.27-34L43.55,49.81l-.31.71a.86.86,0,0,1-1.6-.11l-.18-.59-9.27-29.4a1.78,1.78,0,0,1,3.39-1.07L42.9,42.57,57.66,9.67l.22-.48a.86.86,0,0,1,1.58,0Z" transform="translate(-14.8 -8.65)"/><path class="cls-1" d="M30.57,98.5h-2l-3.47,9h2.13l.6-1.59h3.47l.6,1.59H34Zm-2.06,5.61,1.07-2.85,1.07,2.85Z" transform="translate(-14.8 -8.65)"/><path class="cls-2" d="M79.19,79.15c-7.81,0-10.1-6.9-12.12-13-2.18-6.57-3.86-10.56-8.75-10.56s-6.56,4-8.75,10.56c-2,6.09-4.32,13-12.12,13s-10.1-6.9-12.12-13c-2.18-6.57-3.86-10.56-8.75-10.56a1.78,1.78,0,0,1,0-3.56c7.81,0,10.1,6.9,12.12,13,2.18,6.57,3.86,10.56,8.75,10.56S44,71.6,46.2,65c2-6.09,4.32-13,12.12-13s10.1,6.9,12.13,13c2.18,6.57,3.86,10.56,8.75,10.56s6.57-4,8.75-10.56c2-6.09,4.32-13,12.13-13a1.78,1.78,0,0,1,0,3.56c-4.89,0-6.57,4-8.75,10.56C89.3,72.24,87,79.15,79.19,79.15Z" transform="translate(-14.8 -8.65)"/><path class="cls-3" d="M72.68,88.41A3.63,3.63,0,0,1,69.88,88c-2.16-1.42-2.55-5.44-3.17-9.41h0c-.9-5.75-2-12.9-8.39-12.9h0c-6.37,0-7.49,7.15-8.39,12.9-.62,4-1,8-3.17,9.41a3.63,3.63,0,0,1-2.79.38c-3.94-.8-4.4-6.26-4.66-14.48-.27-8.44-.57-18-9.41-18a1.78,1.78,0,0,0,0,3.56c5,0,5.56,5.5,5.85,14.57.24,7.7.52,16.43,7.52,17.86a9.3,9.3,0,0,0,1.77.18,6.4,6.4,0,0,0,3.76-1.14c3.14-2.21,3.9-7.07,4.64-11.77,1-6.15,1.77-9.89,4.88-9.89h0c3.11,0,3.91,3.74,4.88,9.89.74,4.7,1.5,9.56,4.64,11.77a7,7,0,0,0,5.55,1c7-1.43,7.26-10.16,7.5-17.86.29-9.06.82-14.57,5.85-14.57a1.78,1.78,0,0,0,0-3.56c-8.84,0-9.14,9.57-9.41,18-.26,8.23-.73,13.68-4.64,14.48Z" transform="translate(-14.8 -8.65)"/><path class="cls-4" d="M88.56,79.68a1.78,1.78,0,0,0-2.46.53L72.64,101,59.83,85.51l-.85-1a.86.86,0,0,0-1.33,0l-.6.72L44,101,30.54,80.21a1.78,1.78,0,1,0-3,1.93l14.07,21.75-2.49,3-.38.53a5.71,5.71,0,0,0-1,3.25,5.64,5.64,0,0,0,1.66,4,5.74,5.74,0,0,0,4.1,1.7h0a5.73,5.73,0,0,0,4.78-8.83L46,104.14,58.32,89.27l12.29,14.87-2.24,3.45a5.73,5.73,0,0,0,4.79,8.83h0a5.74,5.74,0,0,0,4.1-1.7,5.72,5.72,0,0,0,.64-7.28L75,103.89,89.09,82.14A1.78,1.78,0,0,0,88.56,79.68Zm-45.1,33.19h0a2.2,2.2,0,0,1-1.55-.65,2.11,2.11,0,0,1-.62-1.51,2.17,2.17,0,0,1,.38-1.23l.25-.36,1.73-2.1,1.63,2.51a2.17,2.17,0,0,1-1.82,3.34Zm31.9-2.16a2.11,2.11,0,0,1-.62,1.51,2.2,2.2,0,0,1-1.55.65h0a2.17,2.17,0,0,1-1.83-3.34L73,107l1.73,2.1.25.36A2.16,2.16,0,0,1,75.36,110.71Z" transform="translate(-14.8 -8.65)"/><path class="cls-5" d="M59.54,35.65,74.4,56.76l17.1-27a1.78,1.78,0,1,1,3,1.9L75.82,61.17l-.57.91a.86.86,0,0,1-1.43,0l-.63-.89L58.32,40.1,43.13,61.69l-.3.43a.86.86,0,0,1-1.43,0l-.3-.47-19-29.95a1.78,1.78,0,1,1,3-1.9l17.1,27,14.8-21,.56-.8a.86.86,0,0,1,1.42,0Z" transform="translate(-14.8 -8.65)"/><path class="cls-6" d="M59.32,9.68l14.76,32.9,7.38-23.22a1.78,1.78,0,1,1,3.39,1.08L75.42,50.08l-.1.31a.86.86,0,0,1-1.6.11l-.15-.35L58.29,16.09,43.18,49.81l-.31.71a.86.86,0,0,1-1.6-.11l-.18-.59L31.8,20.39a1.78,1.78,0,0,1,3.39-1.07l7.33,23.24L57.29,9.64l.22-.48a.86.86,0,0,1,1.58,0Z" transform="translate(-14.8 -8.65)"/><text class="cls-7" transform="translate(9.43 130.49)">KORK</text></svg>